<svg width="19" height="17" viewBox="0 0 19 17" fill="none" xmlns="http://www.w3.org/2000/svg">
<g id="flagpack:gb-ukm">
<g clip-path="url(#clip0_1_956)">
<mask id="mask0_1_956" style="mask-type:alpha" maskUnits="userSpaceOnUse" x="0" y="0" width="19" height="17">
<g id="svgIDb">
<path id="Vector" d="M0 0.800049H18.6667V16.2H0V0.800049Z" fill="white"/>
</g>
</mask>
<g mask="url(#mask0_1_956)">
<g id="Group">
<path id="Vector_2" fill-rule="evenodd" clip-rule="evenodd" d="M0 0.800049V16.2H18.6667V0.800049H0Z" fill="#2E42A5"/>
<mask id="mask1_1_956" style="mask-type:alpha" maskUnits="userSpaceOnUse" x="0" y="0" width="19" height="17">
<g id="svgIDc">
<path id="Vector_3" fill-rule="evenodd" clip-rule="evenodd" d="M0 0.800049V16.2H18.6667V0.800049H0Z" fill="white"/>
</g>
</mask>
<g mask="url(#mask1_1_956)">
<g id="Group_2">
<mask id="mask2_1_956" style="mask-type:alpha" maskUnits="userSpaceOnUse" x="0" y="0" width="19" height="17">
<g id="svgIDd">
<path id="Vector_4" d="M0 0.800049H18.6667V16.2H0V0.800049Z" fill="white"/>
</g>
</mask>
<g mask="url(#mask2_1_956)">
<g id="Group_3">
<path id="Vector_5" d="M-2.07843 15.0995L2.0294 17.011L18.7594 2.87764L20.9265 0.0376282L16.534 -0.60083L9.71015 5.48923L4.21749 9.59333L-2.07843 15.0995Z" fill="white"/>
<path id="Vector_6" d="M-1.51666 16.4387L0.576921 17.5475L20.1483 -0.226074H17.2101L-1.51608 16.438L-1.51666 16.4387Z" fill="#F50100"/>
<path id="Vector_7" d="M20.7451 15.0995L16.6373 17.011L-0.0927434 2.87764L-2.25983 0.0376282L2.13267 -0.60083L8.95651 5.48923L14.4492 9.59333L20.7451 15.0995Z" fill="white"/>
<path id="Vector_8" d="M20.6051 16.0608L18.5121 17.1696L10.1786 9.55943L7.70756 8.70986L-2.46869 0.0473633H0.470144L10.64 8.50453L13.3414 9.5235L20.6051 16.0608Z" fill="#F50100"/>
<mask id="mask3_1_956" style="mask-type:alpha" maskUnits="userSpaceOnUse" x="-2" y="-1" width="22" height="19">
<g id="svgIDe">
<path id="Vector_9" fill-rule="evenodd" clip-rule="evenodd" d="M11.5372 -0.483398H7.1295V5.93327H-1.15033V11.0666H7.1295V17.4833H11.5372V11.0666H19.8497V5.93327H11.5372V-0.483398Z" fill="white"/>
</g>
</mask>
<g mask="url(#mask3_1_956)">
<path id="Vector_10" fill-rule="evenodd" clip-rule="evenodd" d="M11.5372 -0.483398H7.1295V5.93327H-1.15033V11.0666H7.1295V17.4833H11.5372V11.0666H19.8497V5.93327H11.5372V-0.483398Z" fill="#F50100"/>
<path id="Vector_11" d="M7.12948 -0.483512V-1.76685H5.96282V-0.483512H7.12948ZM11.5371 -0.483512H12.7038V-1.76685H11.5371V-0.483512ZM7.12948 5.93315V7.21649H8.29615V5.93315H7.12948ZM-1.15035 5.93315V4.64982H-2.31702V5.93315H-1.15035ZM-1.15035 11.0665H-2.31702V12.3498H-1.15035V11.0665ZM7.12948 11.0665H8.29615V9.78315H7.12948V11.0665ZM7.12948 17.4832H5.96282V18.7665H7.12948V17.4832ZM11.5371 17.4832V18.7665H12.7038V17.4832H11.5371ZM11.5371 11.0665V9.78315H10.3705V11.0665H11.5371ZM19.8496 11.0665V12.3498H21.0163V11.0665H19.8496ZM19.8496 5.93315H21.0163V4.64982H19.8496V5.93315ZM11.5371 5.93315H10.3705V7.21649H11.5371V5.93315ZM7.12948 0.799821H11.5371V-1.76685H7.12948V0.799821ZM8.29615 5.93315V-0.483512H5.96282V5.93315H8.29615ZM-1.15035 7.21649H7.12948V4.64982H-1.15035V7.21649ZM0.0163167 11.0665V5.93315H-2.31702V11.0665H0.0163167ZM7.12948 9.78315H-1.15035V12.3498H7.12948V9.78315ZM8.29615 17.4832V11.0665H5.96282V17.4832H8.29615ZM11.5371 16.1998H7.12948V18.7665H11.5371V16.1998ZM10.3705 11.0665V17.4832H12.7038V11.0665H10.3705ZM19.8496 9.78315H11.5371V12.3498H19.8496V9.78315ZM18.683 5.93315V11.0665H21.0163V5.93315H18.683ZM11.5371 7.21649H19.8496V4.64982H11.5371V7.21649ZM10.3705 -0.483512V5.93315H12.7038V-0.483512H10.3705Z" fill="white"/>
</g>
</g>
</g>
</g>
</g>
</g>
</g>
</g>
</g>
<defs>
<clipPath id="clip0_1_956">
<rect y="0.800049" width="18.6667" height="15.4" rx="2" fill="white"/>
</clipPath>
</defs>
</svg>
