<svg width="186" height="53" viewBox="0 0 186 53" fill="none" xmlns="http://www.w3.org/2000/svg">
<path d="M0 13.2465V39.7535L21.8215 53L43.6431 39.7535V13.2465L21.8215 0L0 13.2465ZM21.8374 35.5965L13.8128 20.0682H29.8619L21.8374 35.5965ZM20.1154 5.64386V16.5682H8.22758L14.5565 28.8194L3.78416 35.3946V15.5575L20.1154 5.64386ZM5.44154 38.4476L16.1585 31.9142L21.8374 42.9026L27.5307 31.8863L38.2477 38.4198L21.8215 48.3919L5.44154 38.4476ZM39.855 35.3333L29.1262 28.7901L35.4432 16.5655H23.6016V5.68981L39.855 15.5575V35.3333Z" fill="white"/>
<path d="M68.3997 16.2508H53.7667V19.709H59.2267V36.4276H62.7762V19.709H68.3997V16.2508Z" fill="white"/>
<path d="M80.0462 23.0391C79.44 22.3752 78.7166 21.8431 77.9168 21.4729C77.0823 21.0852 76.1795 20.8888 75.2678 20.8965C74.2533 20.8848 73.2468 21.0859 72.3064 21.4882C71.4293 21.8646 70.6382 22.4341 69.9858 23.1588C69.3293 23.8958 68.8148 24.7606 68.4709 25.7051C68.0961 26.7449 67.9109 27.8502 67.925 28.9627C67.925 30.4607 68.248 31.7912 68.8941 32.9541C69.5382 34.1164 70.4729 35.0691 71.5958 35.7078C72.7517 36.3807 74.0851 36.7167 75.5962 36.7158C76.2876 36.7131 76.9759 36.6163 77.6438 36.4276C78.3281 36.2392 78.9912 35.9736 79.6216 35.6354C80.2324 35.3116 80.7974 34.8992 81.3001 34.4103L79.6387 31.9601C78.983 32.5559 78.3734 32.969 77.81 33.1991C77.2149 33.4364 76.583 33.554 75.9469 33.5458C75.0723 33.5672 74.2058 33.3641 73.4219 32.9541C72.7202 32.5798 72.1403 31.9927 71.7566 31.2682C71.4859 30.7599 71.3071 30.2028 71.2292 29.6254H81.838L81.8657 28.3864C81.8936 27.3709 81.7406 26.3589 81.4148 25.403C81.1186 24.5234 80.6525 23.7184 80.0462 23.0391ZM73.0158 24.5816C73.625 24.2159 74.3756 24.0331 75.2678 24.0331C75.8224 24.0259 76.3705 24.1596 76.8659 24.4229C77.3367 24.6728 77.7436 25.0386 78.0526 25.4893C78.3661 25.9507 78.5548 26.4936 78.5984 27.0596V27.1989H71.3096C71.3783 26.8353 71.4886 26.4819 71.638 26.1464C71.9309 25.4855 72.4128 24.9382 73.0158 24.5816Z" fill="white"/>
<path d="M92.642 20.916C91.9332 20.9159 91.2352 21.099 90.6089 21.4492C89.9547 21.811 89.3749 22.3059 88.9027 22.9054C88.6734 23.1908 88.4728 23.5006 88.3041 23.8298L88.2738 21.2334H84.9774V36.4276H88.3621V28.3279C88.3564 27.8292 88.4461 27.3344 88.6258 26.8731C88.9669 26.0136 89.6142 25.3301 90.4282 24.97C90.838 24.7857 91.2789 24.691 91.7243 24.6916C92.0191 24.6922 92.3127 24.731 92.5985 24.8071C92.8547 24.8701 93.1023 24.9669 93.3356 25.0953L94.2361 21.2042C94.0105 21.1142 93.7774 21.0467 93.5399 21.0023C93.2439 20.9432 92.9433 20.9143 92.642 20.916Z" fill="white"/>
<path d="M106.508 23.3787C106.226 22.9336 105.886 22.5329 105.498 22.1884C105.029 21.7765 104.493 21.459 103.915 21.2515C103.273 21.0224 102.599 20.909 101.922 20.916C100.724 20.8985 99.5479 21.2492 98.5358 21.9253C97.5207 22.6145 96.7007 23.5803 96.1625 24.7208C95.5797 25.9125 95.2883 27.2671 95.2883 28.7845C95.2883 30.302 95.5797 31.6571 96.1625 32.8497C96.6966 33.9831 97.4946 34.9546 98.4817 35.673C99.4293 36.3594 100.554 36.7214 101.703 36.7102C102.367 36.7154 103.028 36.5986 103.654 36.3649C104.246 36.1443 104.806 35.8389 105.32 35.4572C105.76 35.1304 106.151 34.7358 106.48 34.2864V36.422H109.894V21.2376H106.508V23.3787ZM104.706 32.9694C104.085 33.3792 103.364 33.5896 102.631 33.575C101.903 33.5913 101.186 33.3807 100.57 32.9694C99.9697 32.5548 99.4918 31.97 99.1911 31.2821C98.8514 30.5007 98.6833 29.6484 98.6993 28.7887C98.6848 27.9454 98.853 27.1097 99.1911 26.3455C99.495 25.6642 99.9725 25.0857 100.57 24.6749C101.186 24.2636 101.903 24.053 102.631 24.0693C103.364 24.0547 104.085 24.2651 104.706 24.6749C105.312 25.0846 105.798 25.6627 106.112 26.3455C106.46 27.1087 106.633 27.9475 106.617 28.7943C106.634 29.6555 106.461 30.509 106.112 31.2877C105.8 31.9751 105.314 32.5574 104.706 32.9694Z" fill="white"/>
<path d="M127.256 26.152C126.833 25.8293 126.369 25.572 125.878 25.3876C126.483 25.1046 127.012 24.6685 127.419 24.118C127.984 23.3495 128.266 22.4079 128.266 21.2933C128.266 20.2167 128.043 19.2992 127.597 18.5409C127.131 17.7639 126.442 17.1633 125.631 16.8258C124.767 16.4416 123.706 16.2494 122.451 16.2494H114.316V36.4276H122.724C123.638 36.4402 124.549 36.3093 125.427 36.0392C126.182 35.8052 126.886 35.4184 127.501 34.9004C128.081 34.4006 128.534 33.7567 128.82 33.0265C129.133 32.2025 129.285 31.3205 129.269 30.4329C129.286 29.578 129.105 28.7316 128.742 27.9673C128.388 27.2478 127.879 26.626 127.256 26.152ZM117.782 19.6227H121.85C122.797 19.6227 123.516 19.8389 124.007 20.2714C124.498 20.7039 124.744 21.3044 124.744 22.0729C124.753 22.52 124.639 22.9603 124.417 23.3412C124.193 23.7125 123.876 24.0116 123.502 24.2057C123.073 24.4263 122.6 24.5352 122.123 24.5231H117.782V19.6227ZM125.331 31.8014C125.077 32.2226 124.705 32.55 124.267 32.7383C123.724 32.9651 123.144 33.0731 122.561 33.0557H117.782V27.7516H122.423C123.018 27.7379 123.611 27.8403 124.171 28.0537C124.622 28.2241 125.016 28.5299 125.304 28.9335C125.574 29.3378 125.713 29.8231 125.7 30.3173C125.714 30.8391 125.586 31.3542 125.331 31.8014Z" fill="white"/>
<path d="M136.103 15.0967H132.719V36.4276H136.103V15.0967Z" fill="white"/>
<path d="M150.54 21.9434C149.361 21.2718 148.043 20.9201 146.704 20.9201C145.365 20.9201 144.047 21.2718 142.868 21.9434C141.754 22.6105 140.83 23.5812 140.193 24.7542C139.548 26.0006 139.21 27.3982 139.21 28.8187C139.21 30.2391 139.548 31.6368 140.193 32.8831C140.83 34.056 141.754 35.0264 142.868 35.6925C143.997 36.3756 145.28 36.7167 146.717 36.7158C148.055 36.7389 149.375 36.3858 150.541 35.6925C151.652 35.0299 152.572 34.0607 153.202 32.8887C153.838 31.6392 154.171 30.2428 154.171 28.8242C154.171 27.4057 153.838 26.0092 153.202 24.7598C152.573 23.5833 151.653 22.6098 150.54 21.9434ZM150.254 31.239C149.917 31.9284 149.417 32.5144 148.803 32.9402C148.183 33.367 147.455 33.5881 146.715 33.575C145.968 33.584 145.235 33.3635 144.605 32.9402C143.981 32.5234 143.476 31.9354 143.144 31.239C142.79 30.4876 142.612 29.6572 142.626 28.818C142.613 27.9744 142.791 27.1397 143.144 26.3831C143.471 25.683 143.977 25.0936 144.605 24.6818C145.238 24.2676 145.97 24.0526 146.715 24.0623C147.453 24.0488 148.179 24.2641 148.803 24.6818C149.418 25.1 149.918 25.6813 150.254 26.3677C150.618 27.1254 150.791 27.9691 150.759 28.818C150.79 29.6573 150.616 30.4911 150.254 31.239Z" fill="white"/>
<path d="M161.719 24.6818C162.249 24.3428 162.846 24.1366 163.463 24.0792C164.08 24.0217 164.702 24.1146 165.279 24.3505C165.757 24.5445 166.206 24.8064 166.616 25.1287C167.015 25.4338 167.365 25.8036 167.654 26.2243L169.511 23.8577C168.899 22.9107 168.049 22.1628 167.057 21.6984C165.951 21.1682 164.749 20.9025 163.535 20.9202C162.257 20.9001 160.998 21.2595 159.904 21.9573C158.835 22.6438 157.958 23.6189 157.364 24.7821C156.754 26.0303 156.435 27.4146 156.435 28.8194C156.435 30.2241 156.754 31.6085 157.364 32.8567C157.959 34.0171 158.835 34.9892 159.904 35.673C160.998 36.3709 162.257 36.7302 163.535 36.7102C164.719 36.7146 165.889 36.4441 166.963 35.918C168.046 35.3909 168.897 34.7041 169.516 33.8576L167.659 31.4645C167.338 31.9012 166.961 32.289 166.54 32.6172C166.152 32.9178 165.724 33.1561 165.27 33.3244C164.827 33.4871 164.361 33.5699 163.892 33.5695C163.139 33.5785 162.4 33.358 161.763 32.9346C161.127 32.5152 160.605 31.9291 160.248 31.2334C159.867 30.4908 159.674 29.6569 159.688 28.8124C159.675 27.9655 159.863 27.1286 160.233 26.3775C160.577 25.6824 161.09 25.097 161.719 24.6818Z" fill="white"/>
<path d="M181.849 36.4276H186L179.214 27.8796L185.918 21.2376H181.441L175.489 27.5469V15.0967H172.13V36.4276H175.489V31.5703L176.934 30.1391L181.849 36.4276Z" fill="white"/>
</svg>
